M48
; DRILL file {KiCad 9.0.7} date 2026-04-24T15:33:58+1000
; FORMAT={-:-/ absolute / metric / decimal}
; #@! TF.CreationDate,2026-04-24T15:33:58+10:00
; #@! TF.GenerationSoftware,Kicad,Pcbnew,9.0.7
; #@! TF.FileFunction,Plated,1,4,PTH
FMAT,2
METRIC
; #@! TA.AperFunction,Plated,PTH,ViaDrill
T1C0.300
; #@! TA.AperFunction,Plated,PTH,ComponentDrill
T2C0.600
; #@! TA.AperFunction,Plated,PTH,ComponentDrill
T3C0.700
; #@! TA.AperFunction,Plated,PTH,ComponentDrill
T4C1.000
; #@! TA.AperFunction,Plated,PTH,ComponentDrill
T5C1.020
; #@! TA.AperFunction,Plated,PTH,ComponentDrill
T6C1.050
; #@! TA.AperFunction,Plated,PTH,ComponentDrill
T7C1.400
; #@! TA.AperFunction,Plated,PTH,ComponentDrill
T8C2.700
%
G90
G05
T1
X102.28Y-84.19
X103.07Y-115.16
X106.88Y-85.32
X107.31Y-73.73
X107.32Y-82.85
X107.45Y-79.39
X107.74Y-74.93
X108.1Y-88.05
X108.24Y-120.28
X108.72Y-76.63
X109.19Y-84.36
X109.642Y-72.718
X110.61Y-84.65
X111.12Y-64.48
X112.31Y-72.85
X112.53Y-80.73
X112.97Y-84.16
X113.39Y-77.68
X113.75Y-61.4
X113.84Y-92.01
X113.96Y-81.05
X114.7Y-89.59
X114.85Y-76.8
X115.39Y-88.77
X115.58Y-90.33
X117.59Y-119.43
X117.78Y-116.56
X118.69Y-116.56
X119.79Y-116.56
X121.85Y-82.29
X121.89Y-74.49
X124.56Y-75.45
X125.25Y-72.73
X125.28Y-77.21
X125.7Y-85.75
X127.34Y-85.84
X127.81Y-56.45
X128.58Y-80.438
X128.64Y-99.79
X128.72Y-73.58
X130.09Y-78.14
X130.77Y-81.04
X130.78Y-77.89
X131.54Y-87.48
X131.55Y-85.83
X131.61Y-91.03
X132.2Y-107.88
X132.37Y-58.35
X133.28Y-86.79
X133.34Y-124.23
X133.78Y-92.66
X134.18Y-87.24
X134.94Y-124.13
X135.1Y-100.66
X135.23Y-101.59
X135.29Y-59.56
X135.698Y-102.147
X135.75Y-90.16
X135.88Y-91.19
X136.57Y-94.21
X136.76Y-89.59
X136.83Y-98.85
X137.097Y-93.433
X137.72Y-95.55
X137.81Y-86.96
X138.47Y-94.83
X139.14Y-56.47
X139.15Y-96.26
X139.363Y-86.87
X139.9Y-89.02
X140.69Y-93.41
X140.99Y-95.74
X141.32Y-89.05
X141.81Y-106.22
X141.91Y-92.4
X142.29Y-124.07
X142.88Y-89.27
X143.62Y-102.615
X144.34Y-84.68
X144.79Y-98.61
X144.9Y-97.31
X145.86Y-84.62
X146.64Y-59.48
X147.58Y-101.7
X148.98Y-105.45
X150.47Y-56.63
X158.11Y-59.58
X161.84Y-56.45
X162.4Y-118.34
X165.57Y-124.6
T3
X95.58Y-115.16
X95.58Y-117.16
X95.58Y-119.16
X95.58Y-121.16
X107.38Y-51.9
X109.38Y-51.9
X111.38Y-51.9
X113.38Y-51.9
X150.33Y-131.62
X152.33Y-131.62
X154.33Y-131.62
X156.33Y-131.62
X175.26Y-115.12
X175.26Y-117.12
X175.26Y-119.12
X175.26Y-121.12
T4
X133.308Y-131.375
X135.808Y-131.375
X138.308Y-131.375
X140.808Y-131.375
X143.308Y-131.375
T5
X96.16Y-61.23
X96.16Y-63.77
X96.16Y-66.31
X96.16Y-68.85
X96.16Y-71.39
X96.16Y-73.93
X96.16Y-76.47
X96.16Y-79.01
X96.16Y-81.55
X96.16Y-84.09
X96.16Y-86.63
X96.16Y-89.17
X96.16Y-91.71
X96.16Y-94.25
X96.16Y-96.79
X96.16Y-99.33
X96.16Y-101.87
X96.16Y-104.41
X96.16Y-106.95
X96.16Y-109.49
X98.7Y-61.23
X98.7Y-63.77
X98.7Y-66.31
X98.7Y-68.85
X98.7Y-71.39
X98.7Y-73.93
X98.7Y-76.47
X98.7Y-79.01
X98.7Y-81.55
X98.7Y-84.09
X98.7Y-86.63
X98.7Y-89.17
X98.7Y-91.71
X98.7Y-94.25
X98.7Y-96.79
X98.7Y-99.33
X98.7Y-101.87
X98.7Y-104.41
X98.7Y-106.95
X98.7Y-109.49
X172.02Y-61.23
X172.02Y-63.77
X172.02Y-66.31
X172.02Y-68.85
X172.02Y-71.39
X172.02Y-73.93
X172.02Y-76.47
X172.02Y-79.01
X172.02Y-81.55
X172.02Y-84.09
X172.02Y-86.63
X172.02Y-89.17
X172.02Y-91.71
X172.02Y-94.25
X172.02Y-96.79
X172.02Y-99.33
X172.02Y-101.87
X172.02Y-104.41
X172.02Y-106.95
X172.02Y-109.49
X174.56Y-61.23
X174.56Y-63.77
X174.56Y-66.31
X174.56Y-68.85
X174.56Y-71.39
X174.56Y-73.93
X174.56Y-76.47
X174.56Y-79.01
X174.56Y-81.55
X174.56Y-84.09
X174.56Y-86.63
X174.56Y-89.17
X174.56Y-91.71
X174.56Y-94.25
X174.56Y-96.79
X174.56Y-99.33
X174.56Y-101.87
X174.56Y-104.41
X174.56Y-106.95
X174.56Y-109.49
T6
X103.115Y-103.307
X103.115Y-105.807
X105.977Y-130.825
X108.477Y-130.825
X162.577Y-131.345
X165.077Y-131.345
T7
X122.787Y-53.84
X127.787Y-53.84
X134.14Y-53.84
X139.14Y-53.84
X145.468Y-53.84
X150.468Y-53.84
X156.84Y-53.84
X161.84Y-53.84
T8
X118.519Y-124.485
X125.719Y-124.485
T2
G00X115.369Y-129.935
M15
G01X115.369Y-131.035
M16
G05
G00X128.869Y-129.935
M15
G01X128.869Y-131.035
M16
G05
M30
